<?xml version="1.0" standalone="no"?>
<!DOCTYPE svg PUBLIC "-//W3C//DTD SVG 20010904//EN"
 "http://www.w3.org/TR/2001/REC-SVG-20010904/DTD/svg10.dtd">
<svg version="1.0" xmlns="http://www.w3.org/2000/svg"
 width="500.000000pt" height="500.000000pt" viewBox="0 0 500.000000 500.000000"
 preserveAspectRatio="xMidYMid meet">

<g transform="translate(0.000000,500.000000) scale(0.100000,-0.100000)"
fill="#000000" stroke="none">
<path d="M1850 4342 c-60 -30 -80 -72 -80 -167 l0 -83 -172 -4 c-149 -4 -181
-7 -230 -27 -79 -31 -150 -98 -190 -178 -31 -63 -32 -71 -36 -212 -5 -175 -3
-181 98 -301 39 -47 101 -130 138 -185 37 -55 68 -102 70 -105 9 -14 22 32 21
80 0 49 -8 81 -34 143 -7 16 53 17 1174 17 l1181 0 0 -166 0 -167 -67 -71
c-119 -125 -199 -271 -268 -486 -20 -63 -55 -171 -77 -240 -78 -242 -163 -372
-290 -441 l-63 -34 -406 -3 c-390 -3 -408 -2 -461 18 -129 48 -263 162 -336
286 -52 87 -78 153 -136 343 -70 230 -119 327 -231 456 -37 42 -64 88 -92 157
-22 53 -62 132 -88 175 -64 102 -195 235 -266 268 -68 31 -84 31 -105 0 -20
-31 -15 -81 27 -242 16 -63 29 -118 29 -122 0 -4 -23 -13 -51 -20 -83 -22
-182 -77 -231 -129 -29 -31 -54 -72 -71 -118 -15 -39 -40 -82 -55 -96 -15 -14
-93 -50 -180 -83 -167 -63 -212 -93 -212 -142 0 -39 90 -209 134 -254 66 -68
90 -74 281 -74 153 -1 174 -3 210 -22 46 -24 75 -54 101 -103 14 -28 19 -70
25 -210 6 -175 13 -211 54 -290 28 -54 105 -130 184 -181 94 -62 206 -98 432
-138 212 -37 259 -51 323 -91 l49 -31 -7 43 c-19 120 -110 194 -278 225 -344
64 -399 82 -490 162 -76 67 -90 115 -98 321 -6 160 -9 181 -35 245 -27 66 -27
70 -9 80 50 28 124 110 155 173 26 54 33 79 33 129 0 52 2 60 13 51 26 -21 61
-93 73 -148 42 -194 113 -320 241 -427 30 -24 122 -86 204 -138 83 -51 182
-117 220 -145 146 -108 156 -110 620 -110 401 0 445 5 550 56 190 93 302 259
415 617 84 264 122 359 179 453 70 114 120 165 304 314 l162 132 3 -84 c3
-124 3 -124 70 -143 123 -35 186 -93 237 -214 42 -102 70 -140 140 -188 61
-42 61 -40 24 -139 -46 -121 -125 -184 -233 -184 -97 -1 -202 -18 -245 -39
-50 -26 -104 -90 -119 -140 -18 -59 -14 -178 9 -298 46 -235 -8 -391 -173
-501 -21 -13 -38 -26 -38 -29 0 -2 24 -1 53 3 236 28 328 121 343 349 5 60 1
106 -15 182 -12 55 -21 133 -21 173 0 66 2 74 29 101 28 28 33 29 123 29 109
0 176 16 252 59 102 59 191 191 222 331 26 113 5 158 -110 233 -27 18 -53 39
-57 47 -4 8 -30 63 -58 121 -57 122 -113 181 -206 219 l-55 22 0 124 c0 67 -4
134 -9 147 -16 40 -51 67 -89 67 -37 0 -66 -19 -225 -147 -42 -35 -79 -63 -82
-63 -2 0 -5 154 -7 343 l-3 342 -27 57 c-32 68 -97 136 -159 166 -66 32 -135
42 -290 42 l-139 0 6 43 c10 72 -12 151 -51 186 -61 54 -143 50 -199 -7 -33
-36 -46 -79 -46 -159 l0 -63 -500 0 -500 0 0 78 c0 98 -19 138 -80 170 -53 27
-84 28 -130 4z m-80 -524 c6 -87 24 -121 81 -151 68 -36 166 -1 195 69 8 18
14 63 14 99 l0 65 499 0 498 0 5 -72 c6 -85 26 -131 71 -158 63 -39 165 -17
199 42 7 13 15 59 18 103 l5 80 140 3 c161 3 205 -8 254 -63 38 -43 43 -72 39
-215 l-3 -115 -1230 0 -1230 0 -3 110 c-4 132 9 185 55 231 46 46 77 53 243
51 l145 -2 5 -77z m-961 -1084 c41 -52 22 -82 -55 -86 l-49 -3 1 42 c0 23 6
49 14 57 20 25 66 20 89 -10z"/>
<path d="M2415 3088 c-35 -20 -40 -40 -45 -187 l-5 -143 -127 1 c-136 2 -187
-10 -207 -47 -7 -12 -11 -81 -11 -166 0 -139 1 -146 24 -173 l24 -28 151 -3
151 -3 0 -139 c0 -132 1 -140 24 -167 24 -28 25 -28 164 -31 212 -5 226 8 221
222 l-3 111 148 5 c147 5 148 5 172 33 21 25 24 39 26 115 5 197 -5 242 -58
262 -14 6 -84 10 -155 10 l-129 0 0 130 c0 138 -10 179 -49 200 -27 14 -291
12 -316 -2z"/>
<path d="M4331 2586 c-44 -46 -5 -99 61 -83 34 9 40 28 20 68 -21 42 -50 48
-81 15z"/>
</g>
</svg>
